<?xml version="1.0" encoding="UTF-8" standalone="no"?>
<!DOCTYPE svg PUBLIC "-//W3C//DTD SVG 1.1//EN"
 "http://www.w3.org/Graphics/SVG/1.1/DTD/svg11.dtd">
<!-- Generated by graphviz version 7.0.2 (20221119.0110)
 -->
<!-- Title: g Pages: 1 -->
<svg width="206pt" height="260pt"
 viewBox="0.00 0.00 206.00 260.00" xmlns="http://www.w3.org/2000/svg" xmlns:xlink="http://www.w3.org/1999/xlink">
<g id="graph0" class="graph" transform="scale(1 1) rotate(0) translate(4 256)">
<title>g</title>
<polygon fill="white" stroke="none" points="-4,4 -4,-256 202,-256 202,4 -4,4"/>
<!-- 1 -->
<g id="node1" class="node">
<title>1</title>
<ellipse fill="none" stroke="black" cx="99" cy="-234" rx="27" ry="18"/>
<text text-anchor="middle" x="99" y="-230.3" font-family="Times New Roman,serif" font-size="14.00">a</text>
</g>
<!-- 2 -->
<g id="node2" class="node">
<title>2</title>
<ellipse fill="none" stroke="black" cx="99" cy="-162" rx="27" ry="18"/>
<text text-anchor="middle" x="99" y="-158.3" font-family="Times New Roman,serif" font-size="14.00">c</text>
</g>
<!-- 1&#45;&gt;2 -->
<g id="edge1" class="edge">
<title>1&#45;&gt;2</title>
<path fill="none" stroke="black" d="M99,-215.7C99,-208.41 99,-199.73 99,-191.54"/>
<polygon fill="black" stroke="black" points="102.5,-191.62 99,-181.62 95.5,-191.62 102.5,-191.62"/>
</g>
<!-- 4 -->
<g id="node3" class="node">
<title>4</title>
<ellipse fill="none" stroke="black" cx="99" cy="-90" rx="27" ry="18"/>
<text text-anchor="middle" x="99" y="-86.3" font-family="Times New Roman,serif" font-size="14.00">c</text>
</g>
<!-- 2&#45;&gt;4 -->
<g id="edge2" class="edge">
<title>2&#45;&gt;4</title>
<path fill="none" stroke="black" d="M99,-143.7C99,-136.41 99,-127.73 99,-119.54"/>
<polygon fill="black" stroke="black" points="102.5,-119.62 99,-109.62 95.5,-119.62 102.5,-119.62"/>
</g>
<!-- 5 -->
<g id="node4" class="node">
<title>5</title>
<ellipse fill="none" stroke="black" cx="45" cy="-18" rx="27" ry="18"/>
<text text-anchor="middle" x="45" y="-14.3" font-family="Times New Roman,serif" font-size="14.00">f</text>
</g>
<!-- 4&#45;&gt;5 -->
<g id="edge3" class="edge">
<title>4&#45;&gt;5</title>
<path fill="none" stroke="black" d="M87.02,-73.46C80.23,-64.67 71.6,-53.48 63.92,-43.53"/>
<polygon fill="black" stroke="black" points="66.75,-41.47 57.88,-35.69 61.21,-45.75 66.75,-41.47"/>
</g>
<!-- 8 -->
<g id="node5" class="node">
<title>8</title>
<ellipse fill="none" stroke="black" cx="153" cy="-18" rx="27" ry="18"/>
<text text-anchor="middle" x="153" y="-14.3" font-family="Times New Roman,serif" font-size="14.00">e</text>
</g>
<!-- 4&#45;&gt;8 -->
<g id="edge4" class="edge">
<title>4&#45;&gt;8</title>
<path fill="none" stroke="black" d="M110.98,-73.46C117.77,-64.67 126.4,-53.48 134.08,-43.53"/>
<polygon fill="black" stroke="black" points="136.79,-45.75 140.12,-35.69 131.25,-41.47 136.79,-45.75"/>
</g>
<!-- 3 -->
<g id="node6" class="node">
<title>3</title>
<ellipse fill="none" stroke="black" cx="27" cy="-90" rx="27" ry="18"/>
<text text-anchor="middle" x="27" y="-86.3" font-family="Times New Roman,serif" font-size="14.00">d</text>
</g>
<!-- 3&#45;&gt;5 -->
<g id="edge5" class="edge">
<title>3&#45;&gt;5</title>
<path fill="none" stroke="black" d="M31.36,-72.05C33.3,-64.49 35.65,-55.37 37.84,-46.85"/>
<polygon fill="black" stroke="black" points="41.21,-47.81 40.31,-37.25 34.43,-46.07 41.21,-47.81"/>
</g>
<!-- 6 -->
<g id="node7" class="node">
<title>6</title>
<ellipse fill="none" stroke="black" cx="171" cy="-162" rx="27" ry="18"/>
<text text-anchor="middle" x="171" y="-158.3" font-family="Times New Roman,serif" font-size="14.00">b</text>
</g>
<!-- 7 -->
<g id="node8" class="node">
<title>7</title>
<ellipse fill="none" stroke="black" cx="171" cy="-90" rx="27" ry="18"/>
<text text-anchor="middle" x="171" y="-86.3" font-family="Times New Roman,serif" font-size="14.00">b</text>
</g>
<!-- 6&#45;&gt;7 -->
<g id="edge6" class="edge">
<title>6&#45;&gt;7</title>
<path fill="none" stroke="black" d="M171,-143.7C171,-136.41 171,-127.73 171,-119.54"/>
<polygon fill="black" stroke="black" points="174.5,-119.62 171,-109.62 167.5,-119.62 174.5,-119.62"/>
</g>
<!-- 7&#45;&gt;8 -->
<g id="edge7" class="edge">
<title>7&#45;&gt;8</title>
<path fill="none" stroke="black" d="M166.64,-72.05C164.7,-64.49 162.35,-55.37 160.16,-46.85"/>
<polygon fill="black" stroke="black" points="163.57,-46.07 157.69,-37.25 156.79,-47.81 163.57,-46.07"/>
</g>
</g>
</svg>
